<mxfile host="app.diagrams.net" agent="Mozilla/5.0 (X11; Ubuntu; Linux x86_64; rv:132.0) Gecko/20100101 Firefox/132.0" version="24.9.2">
  <diagram name="Page-1" id="jwWMfnfHqEDuhcQFfIa4">
    <mxGraphModel grid="1" page="1" gridSize="10" guides="1" tooltips="1" connect="1" arrows="1" fold="1" pageScale="1" pageWidth="850" pageHeight="1100" math="0" shadow="0">
      <root>
        <mxCell id="0" />
        <mxCell id="1" parent="0" />
        <mxCell id="pMRY91SZt6f75S9AmGTI-3" value="" style="edgeStyle=orthogonalEdgeStyle;rounded=0;orthogonalLoop=1;jettySize=auto;html=1;" edge="1" parent="1" source="pMRY91SZt6f75S9AmGTI-1" target="pMRY91SZt6f75S9AmGTI-2">
          <mxGeometry relative="1" as="geometry" />
        </mxCell>
        <mxCell id="pMRY91SZt6f75S9AmGTI-1" value="Start" style="ellipse;whiteSpace=wrap;html=1;" vertex="1" parent="1">
          <mxGeometry x="360" y="40" width="120" height="80" as="geometry" />
        </mxCell>
        <mxCell id="pMRY91SZt6f75S9AmGTI-5" value="" style="edgeStyle=orthogonalEdgeStyle;rounded=0;orthogonalLoop=1;jettySize=auto;html=1;" edge="1" parent="1" source="pMRY91SZt6f75S9AmGTI-2" target="pMRY91SZt6f75S9AmGTI-4">
          <mxGeometry relative="1" as="geometry" />
        </mxCell>
        <mxCell id="pMRY91SZt6f75S9AmGTI-2" value="&lt;div&gt;double resistance&lt;/div&gt;&lt;div&gt;double voltage&lt;/div&gt;" style="rounded=0;whiteSpace=wrap;html=1;" vertex="1" parent="1">
          <mxGeometry x="360" y="160" width="120" height="60" as="geometry" />
        </mxCell>
        <mxCell id="pMRY91SZt6f75S9AmGTI-7" value="" style="edgeStyle=orthogonalEdgeStyle;rounded=0;orthogonalLoop=1;jettySize=auto;html=1;" edge="1" parent="1" source="pMRY91SZt6f75S9AmGTI-4" target="pMRY91SZt6f75S9AmGTI-6">
          <mxGeometry relative="1" as="geometry" />
        </mxCell>
        <mxCell id="pMRY91SZt6f75S9AmGTI-4" value="&lt;div align=&quot;center&quot;&gt;Output &quot;Input the resistance and&lt;/div&gt;&lt;div align=&quot;center&quot;&gt;voltage of the electric circuit&amp;nbsp;&lt;/div&gt;&lt;div align=&quot;center&quot;&gt;separated by a single space: &quot;&lt;/div&gt;" style="shape=parallelogram;perimeter=parallelogramPerimeter;whiteSpace=wrap;html=1;fixedSize=1;align=center;" vertex="1" parent="1">
          <mxGeometry x="315" y="250" width="210" height="70" as="geometry" />
        </mxCell>
        <mxCell id="pMRY91SZt6f75S9AmGTI-9" value="" style="edgeStyle=orthogonalEdgeStyle;rounded=0;orthogonalLoop=1;jettySize=auto;html=1;" edge="1" parent="1" source="pMRY91SZt6f75S9AmGTI-6" target="pMRY91SZt6f75S9AmGTI-8">
          <mxGeometry relative="1" as="geometry" />
        </mxCell>
        <mxCell id="pMRY91SZt6f75S9AmGTI-6" value="&lt;div&gt;Input resistance &amp;amp;&lt;/div&gt;&lt;div&gt;voltage&lt;/div&gt;" style="shape=parallelogram;perimeter=parallelogramPerimeter;whiteSpace=wrap;html=1;fixedSize=1;" vertex="1" parent="1">
          <mxGeometry x="355" y="350" width="130" height="60" as="geometry" />
        </mxCell>
        <mxCell id="pMRY91SZt6f75S9AmGTI-12" value="" style="edgeStyle=orthogonalEdgeStyle;rounded=0;orthogonalLoop=1;jettySize=auto;html=1;" edge="1" parent="1" source="pMRY91SZt6f75S9AmGTI-8" target="pMRY91SZt6f75S9AmGTI-11">
          <mxGeometry relative="1" as="geometry" />
        </mxCell>
        <mxCell id="pMRY91SZt6f75S9AmGTI-8" value="&lt;div&gt;double power=&lt;/div&gt;&lt;div&gt;voltage/resistance&lt;/div&gt;" style="rounded=0;whiteSpace=wrap;html=1;" vertex="1" parent="1">
          <mxGeometry x="360" y="440" width="120" height="60" as="geometry" />
        </mxCell>
        <mxCell id="pMRY91SZt6f75S9AmGTI-14" value="" style="edgeStyle=orthogonalEdgeStyle;rounded=0;orthogonalLoop=1;jettySize=auto;html=1;" edge="1" parent="1" source="pMRY91SZt6f75S9AmGTI-11" target="pMRY91SZt6f75S9AmGTI-13">
          <mxGeometry relative="1" as="geometry" />
        </mxCell>
        <mxCell id="pMRY91SZt6f75S9AmGTI-11" value="&lt;div&gt;Output &quot;Power of the&lt;/div&gt;&lt;div&gt;electric circuit: &quot; power&lt;/div&gt;" style="shape=parallelogram;perimeter=parallelogramPerimeter;whiteSpace=wrap;html=1;fixedSize=1;" vertex="1" parent="1">
          <mxGeometry x="345" y="530" width="150" height="60" as="geometry" />
        </mxCell>
        <mxCell id="pMRY91SZt6f75S9AmGTI-13" value="End" style="ellipse;whiteSpace=wrap;html=1;" vertex="1" parent="1">
          <mxGeometry x="360" y="620" width="120" height="80" as="geometry" />
        </mxCell>
      </root>
    </mxGraphModel>
  </diagram>
</mxfile>
